<svg width="95" height="88" viewBox="0 0 95 88" fill="none" xmlns="http://www.w3.org/2000/svg">
<path d="M93.3767 71.1455C92.6223 69.9441 91.636 68.9051 90.4756 68.0894C89.3152 67.2737 88.0038 66.6977 86.6183 66.3947C81.3173 65.1613 76.7199 61.8788 73.8305 57.2645C70.9413 52.6501 69.9951 47.0792 71.1987 41.7691C71.6615 39.7168 71.5078 37.5734 70.7569 35.6081C70.006 33.6428 68.6915 31.9433 66.9783 30.723C65.2651 29.5028 63.2297 28.8163 61.1277 28.7495C59.0258 28.6828 56.9511 29.2389 55.164 30.348C53.3769 31.4572 51.9573 33.0697 51.0833 34.9834C50.2095 36.8972 49.9201 39.0265 50.2519 41.1041C50.5836 43.1817 51.5216 45.115 52.948 46.661C54.3743 48.207 56.2255 49.297 58.269 49.7938C60.9127 50.3904 63.4127 51.5031 65.6257 53.0682C67.8386 54.6332 69.7211 56.62 71.1651 58.9142C72.6092 61.2086 73.5864 63.7655 74.0408 66.4384C74.4953 69.1113 74.418 71.8477 73.8133 74.4906C73.4552 76.1945 73.519 77.96 73.9993 79.6334C74.4795 81.3067 75.3616 82.8372 76.5686 84.0915C77.7756 85.3457 79.2707 86.2856 80.924 86.8293C82.5772 87.3729 84.3382 87.5036 86.0535 87.2104C87.769 86.9171 89.3866 86.2085 90.7655 85.1465C92.1445 84.0843 93.2427 82.7011 93.9649 81.117C94.6869 79.5328 95.0109 77.7962 94.9084 76.0582C94.8058 74.3202 94.2801 72.6336 93.3767 71.1455Z" fill="url(#paint0_angular_1_17)"/>
<path d="M27.7675 59.2952C29.6343 60.3143 31.7628 60.7523 33.8799 60.5528C35.9973 60.3533 38.0065 59.5255 39.6502 58.1755C41.2939 56.8255 42.497 55.015 43.1049 52.9763C43.713 50.9376 43.6982 48.7636 43.0626 46.7333C42.2569 44.1443 41.97 41.4219 42.2181 38.7218C42.4663 36.0218 43.2445 33.3973 44.5086 30.9988C45.7726 28.6003 47.4973 26.475 49.5839 24.7446C51.6705 23.0143 54.0779 21.7131 56.6682 20.9155C58.6772 20.286 60.455 19.0759 61.7781 17.4379C63.1013 15.7998 63.9106 13.8068 64.1041 11.7096C64.2978 9.61233 63.8671 7.50465 62.8662 5.65191C61.8653 3.79904 60.3389 2.28374 58.4793 1.29677C56.6196 0.309804 54.5097 -0.104907 52.4151 0.105064C50.3204 0.314904 48.3346 1.13988 46.7075 2.47633C45.0803 3.81264 43.8847 5.60066 43.2709 7.61526C42.6572 9.62985 42.6528 11.7811 43.2582 13.7982C44.8476 19.0056 44.3101 24.631 41.7636 29.443C39.217 34.2549 34.8688 37.8616 29.6705 39.4736C27.6184 40.069 25.7921 41.2669 24.4282 42.9124C23.0643 44.5579 22.2254 46.5751 22.0204 48.7028C21.8155 50.8306 22.2537 52.971 23.2783 54.8467C24.303 56.7226 25.8669 58.2474 27.7675 59.224V59.2952Z" fill="url(#paint1_angular_1_17)"/>
<path d="M55.2276 57.5512C53.8088 57.601 52.4143 57.9337 51.1255 58.5294C49.8367 59.1252 48.6798 59.9722 47.7223 61.021C44.0077 64.9959 38.8709 67.3378 33.4353 67.5345C27.9996 67.7313 22.7071 65.7668 18.715 62.0707C17.6835 61.1024 16.47 60.349 15.1449 59.8541C13.8199 59.3593 12.4097 59.1329 10.9964 59.1883C9.25675 59.2704 7.5635 59.7772 6.0647 60.6646C4.56578 61.5519 3.30691 62.7928 2.39776 64.2788C1.48847 65.7649 0.956724 67.4511 0.84865 69.1901C0.740706 70.9292 1.0597 72.6682 1.77806 74.2556C2.49642 75.8428 3.59206 77.2301 4.96959 78.2963C6.34711 79.3625 7.96443 80.075 9.68055 80.3719C11.3967 80.6688 13.1594 80.5411 14.8148 79.9997C16.4703 79.4583 17.968 78.5198 19.1774 77.266C21.0171 75.2733 23.2317 73.6632 25.6942 72.5281C28.1569 71.393 30.8192 70.755 33.5286 70.6509C36.2381 70.5468 38.9415 70.9784 41.4839 71.9212C44.0263 72.8641 46.3578 74.2994 48.3449 76.1451C49.6385 77.3145 51.1988 78.1489 52.8894 78.5754C54.58 79.002 56.3492 79.0076 58.0424 78.5919C59.7357 78.1761 61.3011 77.3517 62.6022 76.1906C63.9033 75.0294 64.9001 73.567 65.5057 71.9313C66.1111 70.2955 66.3068 68.5364 66.0756 66.8075C65.8443 65.0787 65.1931 63.4329 64.1789 62.014C63.1648 60.5952 61.8187 59.4466 60.2583 58.6686C58.6978 57.8906 56.9706 57.5069 55.2276 57.5512Z" fill="url(#paint2_angular_1_17)"/>
<defs>
<radialGradient id="paint0_angular_1_17" cx="0" cy="0" r="1" gradientUnits="userSpaceOnUse" gradientTransform="translate(72.5226 58.0535) rotate(90) scale(29.3094 22.4043)">
<stop offset="0.797474" stop-color="#DB2B2B"/>
<stop offset="1" stop-color="#DB4B2B"/>
</radialGradient>
<radialGradient id="paint1_angular_1_17" cx="0" cy="0" r="1" gradientUnits="userSpaceOnUse" gradientTransform="translate(43.0603 30.3259) rotate(90) scale(30.274 21.0891)">
<stop offset="0.0313176" stop-color="#FAE212"/>
<stop offset="1" stop-color="#FFC700"/>
</radialGradient>
<radialGradient id="paint2_angular_1_17" cx="0" cy="0" r="1" gradientUnits="userSpaceOnUse" gradientTransform="translate(33.499 69.0379) rotate(90) scale(11.4902 32.6709)">
<stop stop-color="#32FA12"/>
<stop offset="0.337642" stop-color="#7BE13C"/>
</radialGradient>
</defs>
</svg>
