<svg width="1071" height="258" viewBox="0 0 1071 258" fill="none" xmlns="http://www.w3.org/2000/svg">
<path fill-rule="evenodd" clip-rule="evenodd" d="M0 0.612503L29.4422 5.96563C59.7766 11.3188 118.661 22.025 178.437 43.4375C238.214 64.85 297.098 96.9688 356.875 129.088C416.652 161.206 475.536 193.325 535.312 187.972C595.089 182.619 653.973 139.794 713.75 139.794C773.527 139.794 832.411 182.619 892.187 209.384C951.964 236.15 1010.85 246.856 1041.18 252.209L1070.62 257.563V257.563H1041.18C1010.85 257.563 951.964 257.563 892.187 257.563C832.411 257.563 773.527 257.563 713.75 257.563C653.973 257.563 595.089 257.563 535.312 257.563C475.536 257.563 416.652 257.563 356.875 257.563C297.098 257.563 238.214 257.563 178.437 257.563C118.661 257.563 59.7766 257.563 29.4422 257.563H0V0.612503Z" fill="white" fill-opacity="0.1"/>
<path fill-rule="evenodd" clip-rule="evenodd" d="M-28.5498 47.0062L0.892382 52.3594C31.2268 57.7125 90.1111 68.4187 149.888 89.8313C209.664 111.244 268.549 143.363 328.325 175.481C388.102 207.6 446.986 239.719 506.763 234.366C566.539 229.013 625.424 186.188 685.2 186.188C744.977 186.188 803.861 229.013 863.638 255.778C923.414 282.544 982.299 293.25 1012.63 298.603L1042.08 303.956V303.956H1012.63C982.299 303.956 923.414 303.956 863.638 303.956C803.861 303.956 744.977 303.956 685.2 303.956C625.424 303.956 566.539 303.956 506.763 303.956C446.986 303.956 388.102 303.956 328.325 303.956C268.549 303.956 209.664 303.956 149.888 303.956C90.1111 303.956 31.2268 303.956 0.892382 303.956H-28.5498V47.0062Z" fill="white" fill-opacity="0.1"/>
<path fill-rule="evenodd" clip-rule="evenodd" d="M-31.2266 96.9688L-1.78438 102.322C28.55 107.675 87.4344 118.381 147.211 139.794C206.987 161.206 265.872 193.325 325.648 225.444C385.425 257.563 444.309 289.681 504.086 284.328C563.862 278.975 622.747 236.15 682.523 236.15C742.3 236.15 801.184 278.975 860.961 305.741C920.737 332.506 979.622 343.213 1009.96 348.566L1039.4 353.919V353.919H1009.96C979.622 353.919 920.737 353.919 860.961 353.919C801.184 353.919 742.3 353.919 682.523 353.919C622.747 353.919 563.862 353.919 504.086 353.919C444.309 353.919 385.425 353.919 325.648 353.919C265.872 353.919 206.987 353.919 147.211 353.919C87.4344 353.919 28.55 353.919 -1.78438 353.919H-31.2266V96.9688Z" fill="white" fill-opacity="0.1"/>
</svg>
